<svg width="135" height="32" viewBox="0 0 135 32" fill="none" xmlns="http://www.w3.org/2000/svg">
<path d="M3.285 10.6981C3.31842 10.6578 3.36019 10.6527 3.41031 10.683C3.46044 10.7132 3.50638 10.7585 3.54815 10.8189C3.58992 10.8794 3.62751 10.9448 3.66093 11.0153C3.69434 11.0858 3.71105 11.1412 3.71105 11.1815C3.57739 11.3225 3.3393 11.6146 2.99679 12.0578C2.65429 12.5009 2.29507 12.9693 1.91914 13.4628C1.54322 13.9563 1.20489 14.4146 0.904147 14.8376C0.603407 15.2606 0.427976 15.5225 0.377852 15.6232C0.143944 15.5023 0.0186356 15.3361 0.00192782 15.1246C-0.0147799 14.9131 0.0771128 14.6966 0.277606 14.475C0.712008 13.9311 1.17565 13.352 1.66853 12.7376C2.16141 12.1232 2.70023 11.4434 3.285 10.6981ZM0.0269894 15.2304C-0.00642609 15.1901 -0.00642609 15.1347 0.0269894 15.0642C0.060405 14.9937 0.114705 14.9282 0.18989 14.8678C0.265075 14.8074 0.34026 14.752 0.415445 14.7016C0.49063 14.6513 0.553284 14.616 0.603407 14.5959C0.887439 15.0592 1.22159 15.5225 1.60587 15.9858C1.99015 16.4491 2.34937 16.862 2.68352 17.2246C3.08451 17.6476 3.4855 18.0606 3.88648 18.4635C3.71941 18.8059 3.53144 18.9973 3.3226 19.0375C3.11375 19.0778 2.92579 18.9771 2.75871 18.7354C2.32431 18.2117 1.91079 17.6829 1.51816 17.1491C1.12553 16.6153 0.628469 15.9757 0.0269894 15.2304ZM11.8561 3.32548C12.0065 3.72836 12.1025 3.99022 12.1443 4.11109C12.1861 4.23195 12.2237 4.43338 12.2571 4.7154C12.0566 4.51396 11.8811 4.34274 11.7308 4.20173C11.5804 4.06073 11.43 3.93483 11.2797 3.82404C11.1293 3.71325 10.9622 3.61757 10.7784 3.53699C10.5947 3.45642 10.3774 3.38591 10.1268 3.32548C9.45852 3.22477 8.8278 3.25498 8.23468 3.41613C7.64155 3.57728 7.14032 3.83411 6.73098 4.18663C6.32164 4.53914 6.03343 4.97223 5.86635 5.48589C5.69928 5.99956 5.69928 6.55854 5.86635 7.16285C6.05014 7.82759 6.33417 8.46716 6.71845 9.08154C7.10273 9.69592 7.54131 10.2952 8.03419 10.8794C8.52706 11.4635 9.05336 12.0124 9.61307 12.5261C10.1728 13.0398 10.7074 13.5232 11.217 13.9764C11.7266 14.4297 12.1986 14.8376 12.633 15.2002C13.0674 15.5628 13.4016 15.875 13.6355 16.1369C14.1534 15.8146 14.6379 15.5426 15.089 15.321C15.5401 15.0995 16.008 14.8779 16.4925 14.6563H16.6429C16.7097 14.6764 16.718 14.7369 16.6679 14.8376C16.5176 14.9987 16.3379 15.17 16.1291 15.3513C15.9203 15.5325 15.7072 15.7189 15.49 15.9102C15.2728 16.1016 15.0598 16.2879 14.851 16.4692C14.6421 16.6505 14.4541 16.8117 14.2871 16.9527C14.7716 17.5368 15.089 18.0656 15.2394 18.539C15.3898 19.0124 15.3981 19.4757 15.2645 19.9289C15.1308 20.3821 14.8551 20.8454 14.4374 21.3188C14.0197 21.7922 13.4767 22.3008 12.8084 22.8447C12.374 23.2073 11.9062 23.5195 11.405 23.7814C10.9037 24.0432 10.4401 24.1994 10.0141 24.2497C9.58801 24.3001 9.2455 24.2044 8.98653 23.9627C8.72756 23.721 8.63984 23.2677 8.72338 22.603C8.9907 21.5152 9.48358 20.508 10.202 19.5814C10.9205 18.6548 11.7475 17.7181 12.6831 16.7714C12.6831 16.711 12.5202 16.5397 12.1944 16.2577C11.8686 15.9757 11.4509 15.6131 10.9413 15.17C10.4317 14.7268 9.87204 14.2131 9.26221 13.629C8.65237 13.0448 8.0676 12.4304 7.50789 11.7858C6.94818 11.1412 6.45112 10.4664 6.01672 9.76139C5.58232 9.05636 5.28994 8.3614 5.13957 7.67652C4.93907 6.81034 4.89313 6.05495 5.00173 5.41035C5.11033 4.76576 5.28576 4.22691 5.52802 3.79382C5.77028 3.36073 6.03761 3.02333 6.32999 2.7816C6.62238 2.53988 6.86047 2.37873 7.04425 2.29816C7.42853 2.15715 7.81698 2.03629 8.20962 1.93557C8.60225 1.83485 8.99906 1.80464 9.40004 1.84492C9.80103 1.88521 10.2062 2.02118 10.6155 2.25283C11.0249 2.48449 11.4384 2.84204 11.8561 3.32548ZM9.80103 22.4519C9.76762 22.5929 9.80939 22.7087 9.92634 22.7994C10.0433 22.89 10.2354 22.9253 10.5028 22.9051C10.7701 22.885 11.1084 22.7893 11.5178 22.6181C11.9271 22.4469 12.4158 22.1598 12.9839 21.7569C13.4016 21.4145 13.7232 21.0418 13.9487 20.639C14.1743 20.2361 14.3079 19.8383 14.3497 19.4455C14.3915 19.0527 14.3372 18.6901 14.1868 18.3577C14.0365 18.0253 13.7858 17.7584 13.435 17.557C13.2679 17.6577 12.988 17.8944 12.5954 18.2671C12.2028 18.6397 11.8018 19.0678 11.3924 19.5512C10.9831 20.0347 10.6197 20.5383 10.3023 21.062C9.98482 21.5857 9.81774 22.049 9.80103 22.4519ZM16.7932 12.7225C17.1107 12.7427 17.4615 12.798 17.8458 12.8887C18.2301 12.9793 18.606 13.1002 18.9736 13.2513C19.3412 13.4024 19.6795 13.5736 19.9886 13.7649C20.2977 13.9563 20.5525 14.1729 20.753 14.4146C20.9535 14.6362 21.0704 14.9736 21.1038 15.4268C21.1372 15.88 21.1122 16.3786 21.0286 16.9225C20.9451 17.4663 20.8156 18.0253 20.6402 18.5994C20.4648 19.1735 20.2684 19.6922 20.0512 20.1555C19.834 20.6188 19.6001 21.0016 19.3495 21.3037C19.0989 21.6059 18.865 21.7569 18.6478 21.7569C18.2802 21.7569 17.9711 21.6512 17.7205 21.4397C17.4699 21.2282 17.2694 20.9713 17.119 20.6692C16.9687 20.367 16.8559 20.0498 16.7807 19.7174C16.7055 19.385 16.6596 19.098 16.6429 18.8563C16.5927 17.7886 16.5844 16.8419 16.6178 16.016C16.6512 15.1901 16.7097 14.5052 16.7932 13.9613C16.7431 13.8606 16.693 13.77 16.6429 13.6894C16.5927 13.6088 16.5426 13.5333 16.4925 13.4628C16.4424 13.3923 16.3839 13.3268 16.3171 13.2664C16.3839 13.2261 16.4507 13.1657 16.5176 13.0851C16.6512 12.9642 16.7431 12.8434 16.7932 12.7225ZM17.6954 19.9138C17.7456 19.9944 17.8124 20.08 17.8959 20.1706C17.9795 20.2613 18.0839 20.3318 18.2092 20.3821C18.3345 20.4325 18.464 20.4375 18.5977 20.3972C18.7313 20.357 18.8733 20.2462 19.0237 20.0649C19.4247 19.5613 19.7254 19.0426 19.9259 18.5088C20.1264 17.975 20.2559 17.4714 20.3144 16.998C20.3729 16.5246 20.3645 16.1066 20.2893 15.7441C20.2141 15.3815 20.093 15.1196 19.9259 14.9585C19.7923 14.8577 19.6795 14.7721 19.5876 14.7016C19.4957 14.6311 19.3788 14.5657 19.2367 14.5052C19.0947 14.4448 18.9151 14.3793 18.6979 14.3088C18.4807 14.2383 18.1967 14.1426 17.8458 14.0218C17.6787 14.6664 17.5618 15.311 17.495 15.9556C17.4281 16.6002 17.3989 17.1894 17.4072 17.7232C17.4156 18.257 17.449 18.7203 17.5075 19.1131C17.566 19.5059 17.6286 19.7728 17.6954 19.9138ZM22.2817 12.7225C22.5992 12.7427 22.95 12.798 23.3343 12.8887C23.7186 12.9793 24.0945 13.1002 24.4621 13.2513C24.8297 13.4024 25.168 13.5736 25.4771 13.7649C25.7862 13.9563 26.041 14.1729 26.2415 14.4146C26.442 14.6362 26.5589 14.9736 26.5923 15.4268C26.6257 15.88 26.6007 16.3786 26.5171 16.9225C26.4336 17.4663 26.3041 18.0253 26.1287 18.5994C25.9533 19.1735 25.7569 19.6922 25.5397 20.1555C25.3225 20.6188 25.0886 21.0016 24.838 21.3037C24.5874 21.6059 24.3535 21.7569 24.1363 21.7569C23.7687 21.7569 23.4596 21.6512 23.209 21.4397C22.9584 21.2282 22.7579 20.9713 22.6075 20.6692C22.4572 20.367 22.3444 20.0498 22.2692 19.7174C22.194 19.385 22.1481 19.098 22.1314 18.8563C22.0812 17.7886 22.0729 16.8419 22.1063 16.016C22.1397 15.1901 22.1982 14.5052 22.2817 13.9613C22.2316 13.8606 22.1815 13.77 22.1314 13.6894C22.0812 13.6088 22.0311 13.5333 21.981 13.4628C21.9309 13.3923 21.8724 13.3268 21.8056 13.2664C21.8724 13.2261 21.9392 13.1657 22.0061 13.0851C22.1397 12.9642 22.2316 12.8434 22.2817 12.7225ZM23.1839 19.9138C23.2341 19.9944 23.3009 20.08 23.3844 20.1706C23.468 20.2613 23.5724 20.3318 23.6977 20.3821C23.823 20.4325 23.9525 20.4375 24.0862 20.3972C24.2198 20.357 24.3618 20.2462 24.5122 20.0649C24.9132 19.5613 25.2139 19.0426 25.4144 18.5088C25.6149 17.975 25.7444 17.4714 25.8029 16.998C25.8614 16.5246 25.853 16.1066 25.7778 15.7441C25.7026 15.3815 25.5815 15.1196 25.4144 14.9585C25.2808 14.8577 25.168 14.7721 25.0761 14.7016C24.9842 14.6311 24.8673 14.5657 24.7252 14.5052C24.5832 14.4448 24.4036 14.3793 24.1864 14.3088C23.9692 14.2383 23.6852 14.1426 23.3343 14.0218C23.1672 14.6664 23.0503 15.311 22.9835 15.9556C22.9166 16.6002 22.8874 17.1894 22.8957 17.7232C22.9041 18.257 22.9375 18.7203 22.996 19.1131C23.0545 19.5059 23.1171 19.7728 23.1839 19.9138ZM27.7953 12.2391C27.7786 12.0578 27.8579 12.0124 28.0334 12.1031C28.2088 12.1937 28.3884 12.2894 28.5722 12.3901C28.639 12.8534 28.6892 13.2211 28.7226 13.493C28.756 13.7649 28.781 14.0218 28.7978 14.2635C28.8145 14.5052 28.8312 14.7671 28.8479 15.0491C28.8646 15.3311 28.8896 15.7038 28.9231 16.1671C29.0734 15.7038 29.2572 15.2757 29.4744 14.8829C29.6916 14.4901 29.9715 14.1527 30.314 13.8707C30.6565 13.5887 31.0658 13.3822 31.542 13.2513C32.0182 13.1203 32.5904 13.075 33.2587 13.1153C33.2587 13.2765 33.2128 13.4124 33.1209 13.5232C33.029 13.634 32.816 13.7196 32.4818 13.78C31.9973 13.8808 31.5754 14.0772 31.2162 14.3693C30.857 14.6613 30.5479 14.9987 30.2889 15.3815C30.03 15.7642 29.8211 16.1721 29.6624 16.6052C29.5037 17.0383 29.3742 17.4361 29.2739 17.7987C29.2572 17.98 29.2363 18.2368 29.2113 18.5692C29.1862 18.9016 29.1695 19.2541 29.1612 19.6268C29.1528 19.9994 29.1444 20.362 29.1361 20.7145C29.1277 21.067 29.1403 21.344 29.1737 21.5454C29.1904 21.6462 29.1528 21.7217 29.0609 21.7721C28.969 21.8224 28.8646 21.8577 28.7476 21.8778C28.6307 21.8979 28.5221 21.8879 28.4218 21.8476C28.3216 21.8073 28.2715 21.7368 28.2715 21.6361C28.3049 19.5613 28.2589 17.7735 28.1336 16.2728C28.0083 14.7721 27.8955 13.4275 27.7953 12.2391ZM37.7197 12.9038C37.703 13.0247 37.6654 13.2765 37.6069 13.6592C37.5484 14.0419 37.4858 14.4901 37.419 15.0038C37.3521 15.5174 37.2937 16.0563 37.2435 16.6203C37.1934 17.1843 37.1642 17.7181 37.1558 18.2217C37.1475 18.7253 37.1725 19.1534 37.231 19.5059C37.2895 19.8584 37.3856 20.0749 37.5192 20.1555C37.9035 20.3771 38.2961 20.3016 38.6971 19.9289C39.0981 19.5562 39.5659 18.9872 40.1006 18.2217C40.1507 18.2217 40.1549 18.3023 40.1131 18.4635C40.0713 18.6246 40.0045 18.8009 39.9126 18.9922C39.8207 19.1836 39.7288 19.375 39.6369 19.5663C39.545 19.7577 39.474 19.8836 39.4239 19.944C39.2902 20.1455 39.0981 20.3721 38.8475 20.6239C38.5969 20.8757 38.3295 21.0771 38.0455 21.2282C37.7615 21.3792 37.49 21.4447 37.231 21.4246C36.972 21.4044 36.759 21.2231 36.5919 20.8807C36.5084 20.639 36.4583 20.3418 36.4416 19.9893C36.4249 19.6368 36.4249 19.2793 36.4416 18.9167C36.4583 18.5541 36.4833 18.2217 36.5167 17.9196C36.5502 17.6174 36.5752 17.3958 36.5919 17.2548C36.2411 18.0404 35.8401 18.7858 35.389 19.4908C34.9379 20.1958 34.4951 20.7498 34.0607 21.1526C33.6263 21.5555 33.2253 21.7721 32.8577 21.8023C32.4902 21.8325 32.2061 21.5756 32.0056 21.0318C31.8887 20.508 31.8887 19.9188 32.0056 19.2642C32.1226 18.6095 32.298 18.0203 32.5319 17.4966C32.8828 16.7714 33.2504 16.1066 33.6347 15.5023C34.0189 14.898 34.4283 14.3844 34.8627 13.9613C35.2971 13.5383 35.7524 13.2311 36.2285 13.0398C36.7047 12.8484 37.2018 12.8031 37.7197 12.9038ZM33.0081 20.5785C33.1752 20.6188 33.4425 20.4677 33.8101 20.1253C34.1777 19.7829 34.5619 19.3045 34.9629 18.6901C35.3639 18.0757 35.7273 17.3606 36.0531 16.5448C36.3789 15.729 36.5919 14.8678 36.6922 13.9613C36.6253 13.9613 36.5293 13.9613 36.404 13.9613C36.2787 13.9613 36.1325 14.0218 35.9654 14.1426C35.3305 14.6462 34.7875 15.2354 34.3364 15.9102C33.8853 16.5851 33.5344 17.2397 33.2838 17.8743C33.0332 18.5088 32.8828 19.0778 32.8327 19.5814C32.7826 20.085 32.841 20.4174 33.0081 20.5785ZM40.276 13.3268C40.3762 12.9844 40.5099 12.7376 40.677 12.5865C40.8441 12.4355 41.0111 12.2995 41.1782 12.1786C41.245 12.3599 41.3119 12.652 41.3787 13.0549C41.4455 13.4578 41.5082 13.9009 41.5667 14.3844C41.6251 14.8678 41.6753 15.3513 41.717 15.8347C41.7588 16.3182 41.8048 16.7311 41.8549 17.0735C41.8883 17.275 41.9175 17.4966 41.9426 17.7383C41.9677 17.98 41.9969 18.2419 42.0303 18.5239C42.1306 18.4635 42.2559 18.3527 42.4062 18.1915C42.5566 18.0304 42.732 17.8692 42.9325 17.7081C43.133 17.5469 43.3544 17.4059 43.5967 17.285C43.8389 17.1642 44.1104 17.1138 44.4112 17.134C44.4279 17.1541 44.4613 17.1793 44.5114 17.2095C44.5615 17.2397 44.6033 17.275 44.6367 17.3153C44.6701 17.3556 44.6785 17.3958 44.6618 17.4361C44.6451 17.4764 44.5866 17.5066 44.4864 17.5268C44.2859 17.5671 44.0436 17.7081 43.7596 17.9498C43.4755 18.1915 43.2082 18.4635 42.9576 18.7656C42.707 19.0678 42.4939 19.375 42.3185 19.6872C42.1431 19.9994 42.0554 20.2562 42.0554 20.4577C42.0721 20.3771 42.0888 20.3066 42.1055 20.2462C42.1389 20.1253 42.1556 20.1354 42.1556 20.2764C42.1389 21.0418 42.1514 21.8577 42.1932 22.7238C42.235 23.59 42.2308 24.6778 42.1807 25.9871C42.1306 27.0346 42.0679 27.8504 41.9927 28.4346C41.9175 29.0187 41.8256 29.477 41.717 29.8094C41.6084 30.1417 41.4873 30.4036 41.3536 30.595C41.22 30.7863 41.0613 31.013 40.8775 31.2748C40.7438 31.436 40.5475 31.5971 40.2885 31.7583C40.0296 31.9194 39.6829 32 39.2485 32C38.3964 32 37.8116 31.2245 37.4942 29.6734C37.444 29.0288 37.444 28.4396 37.4942 27.9058C37.5443 27.372 37.6278 26.8835 37.7448 26.4403C37.8617 25.9972 37.9912 25.5943 38.1332 25.2317C38.2752 24.8691 38.3964 24.5267 38.4966 24.2044C38.647 23.8821 38.8015 23.5598 38.9603 23.2375C39.119 22.9152 39.3028 22.5778 39.5116 22.2253C39.7205 21.8728 39.9585 21.485 40.2259 21.062C40.4932 20.639 40.8023 20.1656 41.1532 19.6419C41.1197 19.3598 41.0947 19.0879 41.078 18.826C41.0446 18.6045 41.0237 18.3829 41.0153 18.1613C41.007 17.9397 40.9944 17.7685 40.9777 17.6476C40.9276 17.285 40.8733 16.8872 40.8148 16.4541C40.7563 16.021 40.6937 15.598 40.6269 15.1851C40.56 14.7721 40.4974 14.3995 40.4389 14.0671C40.3804 13.7347 40.3261 13.488 40.276 13.3268ZM38.2711 26.9842C38.1708 27.8705 38.175 28.6461 38.2836 29.3108C38.3922 29.9756 38.6136 30.4489 38.9477 30.7309C39.0814 30.8115 39.2526 30.8669 39.4615 30.8971C39.6703 30.9274 39.8583 30.9122 40.0254 30.8518C40.4598 30.6101 40.7731 30.1367 40.9652 29.4317C41.1573 28.7267 41.2868 27.9159 41.3536 26.9993C41.4205 26.0828 41.4414 25.1209 41.4163 24.1138C41.3912 23.1066 41.3787 22.1598 41.3787 21.2735C41.362 21.0721 41.3453 20.9764 41.3286 20.9864C41.3119 20.9965 41.2618 21.0519 41.1782 21.1526C40.8608 21.5555 40.5475 22.0037 40.2384 22.4972C39.9293 22.9907 39.6411 23.4994 39.3738 24.0231C39.1064 24.5468 38.8767 25.0655 38.6846 25.5792C38.4924 26.0929 38.3546 26.5612 38.2711 26.9842ZM40.5517 8.73406C40.702 8.71391 40.7856 8.81967 40.8023 9.05132C40.819 9.28297 40.7939 9.45923 40.7271 9.58009C40.5767 9.74124 40.4807 9.87218 40.4389 9.9729C40.3971 10.0736 40.3011 10.134 40.1507 10.1542C40.0671 10.134 39.992 10.129 39.9251 10.1391C39.8583 10.1492 39.8082 10.0132 39.7748 9.73117C39.8249 9.57002 39.9084 9.39376 40.0254 9.2024C40.1423 9.01103 40.3178 8.85492 40.5517 8.73406ZM52.0048 15.17C52.055 15.4117 52.0884 15.5426 52.1051 15.5628C52.1218 15.6031 52.1385 15.6333 52.1552 15.6534C52.2388 15.6333 52.3849 15.5376 52.5938 15.3664C52.8026 15.1951 53.0365 15.0038 53.2955 14.7923C53.5545 14.5808 53.8135 14.3743 54.0724 14.1729C54.3314 13.9714 54.5528 13.8203 54.7366 13.7196C54.8702 13.7599 54.9412 13.7901 54.9496 13.8103C54.9579 13.8304 54.9454 13.8606 54.912 13.9009C53.9764 14.7872 53.1076 15.7944 52.3056 16.9225C52.456 18.5742 52.5813 19.9037 52.6815 20.9109C52.7818 21.9181 52.8611 22.7389 52.9196 23.3735C52.9781 24.008 53.0115 24.5217 53.0198 24.9145C53.0282 25.3073 53.0157 25.7152 52.9823 26.1382C52.9488 26.6015 52.8862 26.9792 52.7943 27.2713C52.7024 27.5634 52.5896 27.8 52.456 27.9813C52.3223 28.1626 52.1761 28.3087 52.0174 28.4195C51.8587 28.5303 51.7041 28.6259 51.5537 28.7065C51.2029 28.8274 50.8854 28.8828 50.6014 28.8727C50.3174 28.8626 50.0626 28.8072 49.837 28.7065C49.6115 28.6058 49.411 28.4698 49.2355 28.2986C49.0601 28.1274 48.9056 27.9411 48.7719 27.7396C48.6215 27.5382 48.4795 27.2713 48.3458 26.9389C48.2122 26.6065 48.1161 26.2037 48.0576 25.7303C47.9992 25.2569 47.995 24.708 48.0451 24.0835C48.0952 23.4591 48.2372 22.744 48.4712 21.9382C48.6215 21.4145 48.7886 20.926 48.9724 20.4728C49.1562 20.0196 49.3567 19.5814 49.5739 19.1584C49.7911 18.7354 50.0375 18.3174 50.3132 17.9045C50.5889 17.4915 50.8938 17.0534 51.2279 16.5901C51.2279 16.4289 51.1903 16.0009 51.1152 15.3059C51.04 14.611 50.9439 13.775 50.8269 12.798C50.71 11.8211 50.5763 10.7635 50.426 9.62542C50.2756 8.4873 50.1252 7.38947 49.9749 6.33193C49.8245 5.27438 49.6825 4.31252 49.5488 3.44635C49.4151 2.58017 49.3065 1.93557 49.223 1.51255C49.2731 1.49241 49.3274 1.44205 49.3859 1.36148C49.4444 1.2809 49.5029 1.20033 49.5613 1.11975C49.6198 1.03918 49.6825 0.963638 49.7493 0.893135C49.8161 0.822632 49.8913 0.797452 49.9749 0.817596C50.025 0.716878 50.096 0.862919 50.1879 1.25572C50.2798 1.64852 50.3842 2.21255 50.5011 2.94779C50.6181 3.68303 50.7392 4.54921 50.8645 5.54632C50.9898 6.54343 51.1193 7.59091 51.253 8.68874C51.3867 9.78657 51.5161 10.8945 51.6415 12.0124C51.7668 13.1304 51.8879 14.1829 52.0048 15.17ZM48.8972 25.685C49.0142 26.108 49.1395 26.4454 49.2731 26.6972C49.4068 26.949 49.5488 27.1454 49.6992 27.2864C49.8495 27.4274 50.0083 27.5331 50.1753 27.6036C50.3424 27.6741 50.5011 27.7396 50.6515 27.8C50.6181 27.7799 50.6682 27.7849 50.8019 27.8152C50.9355 27.8454 51.0441 27.8403 51.1277 27.8C51.3115 27.7598 51.4744 27.6741 51.6164 27.5432C51.7584 27.4123 51.8879 27.2662 52.0048 27.1051C52.1719 26.8835 52.2596 26.4706 52.268 25.8663C52.2763 25.2619 52.2388 24.5317 52.1552 23.6756C52.0717 22.8195 51.9589 21.8728 51.8169 20.8354C51.6749 19.798 51.5454 18.7354 51.4284 17.6476C51.0776 18.1915 50.7392 18.7505 50.4134 19.3246C50.0876 19.8987 49.8036 20.508 49.5613 21.1526C49.3191 21.7972 49.1353 22.4922 49.01 23.2375C48.8847 23.9828 48.8471 24.7986 48.8972 25.685ZM59.7238 12.9038C59.7071 13.0247 59.6695 13.2765 59.6111 13.6592C59.5526 14.0419 59.4899 14.4901 59.4231 15.0038C59.3563 15.5174 59.2978 16.0563 59.2477 16.6203C59.1975 17.1843 59.1683 17.7181 59.1599 18.2217C59.1516 18.7253 59.1766 19.1534 59.2351 19.5059C59.2936 19.8584 59.3897 20.0749 59.5233 20.1555C59.9076 20.3771 60.3003 20.3016 60.7012 19.9289C61.1022 19.5562 61.57 18.9872 62.1047 18.2217C62.1548 18.2217 62.159 18.3023 62.1172 18.4635C62.0754 18.6246 62.0086 18.8009 61.9167 18.9922C61.8248 19.1836 61.7329 19.375 61.641 19.5663C61.5492 19.7577 61.4781 19.8836 61.428 19.944C61.2944 20.1455 61.1022 20.3721 60.8516 20.6239C60.601 20.8757 60.3337 21.0771 60.0496 21.2282C59.7656 21.3792 59.4941 21.4447 59.2351 21.4246C58.9762 21.4044 58.7631 21.2231 58.5961 20.8807C58.5125 20.639 58.4624 20.3418 58.4457 19.9893C58.429 19.6368 58.429 19.2793 58.4457 18.9167C58.4624 18.5541 58.4875 18.2217 58.5209 17.9196C58.5543 17.6174 58.5793 17.3958 58.5961 17.2548C58.2452 18.0404 57.8442 18.7858 57.3931 19.4908C56.942 20.1958 56.4992 20.7498 56.0648 21.1526C55.6304 21.5555 55.2294 21.7721 54.8619 21.8023C54.4943 21.8325 54.2103 21.5756 54.0098 21.0318C53.8928 20.508 53.8928 19.9188 54.0098 19.2642C54.1267 18.6095 54.3022 18.0203 54.5361 17.4966C54.8869 16.7714 55.2545 16.1066 55.6388 15.5023C56.0231 14.898 56.4324 14.3844 56.8668 13.9613C57.3012 13.5383 57.7565 13.2311 58.2327 13.0398C58.7088 12.8484 59.2059 12.8031 59.7238 12.9038ZM55.0122 20.5785C55.1793 20.6188 55.4466 20.4677 55.8142 20.1253C56.1818 19.7829 56.5661 19.3045 56.967 18.6901C57.368 18.0757 57.7314 17.3606 58.0572 16.5448C58.383 15.729 58.5961 14.8678 58.6963 13.9613C58.6295 13.9613 58.5334 13.9613 58.4081 13.9613C58.2828 13.9613 58.1366 14.0218 57.9695 14.1426C57.3346 14.6462 56.7916 15.2354 56.3405 15.9102C55.8894 16.5851 55.5385 17.2397 55.2879 17.8743C55.0373 18.5088 54.8869 19.0778 54.8368 19.5814C54.7867 20.085 54.8452 20.4174 55.0122 20.5785ZM62.8565 12.5714C62.8565 13.1355 62.8524 13.6995 62.844 14.2635C62.8357 14.8275 62.8273 15.3714 62.8189 15.8951C62.8106 16.4189 62.8022 16.9124 62.7939 17.3757C62.7855 17.839 62.773 18.2519 62.7563 18.6145C62.7563 18.534 62.7939 18.3376 62.8691 18.0253C62.9443 17.7131 63.0487 17.3555 63.1823 16.9527C63.316 16.5498 63.4622 16.1218 63.6209 15.6685C63.7796 15.2153 63.9509 14.8124 64.1347 14.4599C64.3185 14.1074 64.5064 13.8304 64.6986 13.629C64.8907 13.4275 65.0703 13.3671 65.2374 13.4477C65.605 13.6491 65.8639 13.9412 66.0143 14.3239C66.1647 14.7067 66.2733 15.1448 66.3401 15.6383C66.4069 16.1318 66.4738 16.6807 66.5406 17.285C66.6074 17.8894 66.7578 18.5239 66.9917 19.1886C67.092 19.4908 67.2381 19.7124 67.4303 19.8534C67.6224 19.9944 67.8062 20.0951 67.9816 20.1555C68.1571 20.216 68.2991 20.2512 68.4077 20.2613C68.5163 20.2713 68.5539 20.3066 68.5205 20.367C68.1028 20.7498 67.7436 20.8807 67.4428 20.7598C67.1421 20.639 66.8873 20.3721 66.6784 19.9591C66.4696 19.5462 66.2983 19.0527 66.1647 18.4786C66.031 17.9045 65.9099 17.3505 65.8013 16.8167C65.6927 16.2829 65.5966 15.8297 65.5131 15.457C65.4295 15.0844 65.3376 14.898 65.2374 14.898C65.087 14.9182 64.9241 15.0894 64.7487 15.4117C64.5733 15.734 64.3936 16.1369 64.2099 16.6203C64.0261 17.1038 63.8507 17.6325 63.6836 18.2066C63.5165 18.7807 63.3619 19.3196 63.2199 19.8232C63.0779 20.3267 62.9651 20.7598 62.8816 21.1224C62.7981 21.485 62.7479 21.7066 62.7312 21.7872C62.4806 21.7872 62.3261 21.7972 62.2676 21.8174C62.2091 21.8375 62.113 21.7368 61.9794 21.5152C62.0629 19.7426 62.0922 18.0656 62.0671 16.4843C62.042 14.9031 62.0044 13.5283 61.9543 12.3599C61.9543 12.1786 61.9919 12.088 62.0671 12.088C62.1423 12.088 62.2258 12.1283 62.3177 12.2088C62.4096 12.2894 62.5057 12.37 62.6059 12.4506C62.7062 12.5311 62.7897 12.5714 62.8565 12.5714ZM73.633 12.9038C73.6163 13.0247 73.5787 13.2765 73.5203 13.6592C73.4618 14.0419 73.3991 14.4901 73.3323 15.0038C73.2655 15.5174 73.207 16.0563 73.1569 16.6203C73.1068 17.1843 73.0775 17.7181 73.0692 18.2217C73.0608 18.7253 73.0859 19.1534 73.1443 19.5059C73.2028 19.8584 73.2989 20.0749 73.4325 20.1555C73.8168 20.3771 74.2095 20.3016 74.6104 19.9289C75.0114 19.5562 75.4793 18.9872 76.0139 18.2217C76.064 18.2217 76.0682 18.3023 76.0264 18.4635C75.9847 18.6246 75.9178 18.8009 75.8259 18.9922C75.734 19.1836 75.6422 19.375 75.5503 19.5663C75.4584 19.7577 75.3874 19.8836 75.3372 19.944C75.2036 20.1455 75.0114 20.3721 74.7608 20.6239C74.5102 20.8757 74.2429 21.0771 73.9588 21.2282C73.6748 21.3792 73.4033 21.4447 73.1443 21.4246C72.8854 21.4044 72.6723 21.2231 72.5053 20.8807C72.4217 20.639 72.3716 20.3418 72.3549 19.9893C72.3382 19.6368 72.3382 19.2793 72.3549 18.9167C72.3716 18.5541 72.3967 18.2217 72.4301 17.9196C72.4635 17.6174 72.4886 17.3958 72.5053 17.2548C72.1544 18.0404 71.7534 18.7858 71.3023 19.4908C70.8512 20.1958 70.4084 20.7498 69.974 21.1526C69.5396 21.5555 69.1387 21.7721 68.7711 21.8023C68.4035 21.8325 68.1195 21.5756 67.919 21.0318C67.802 20.508 67.802 19.9188 67.919 19.2642C68.0359 18.6095 68.2114 18.0203 68.4453 17.4966C68.7961 16.7714 69.1637 16.1066 69.548 15.5023C69.9323 14.898 70.3416 14.3844 70.776 13.9613C71.2104 13.5383 71.6657 13.2311 72.1419 13.0398C72.618 12.8484 73.1151 12.8031 73.633 12.9038ZM68.9215 20.5785C69.0885 20.6188 69.3559 20.4677 69.7234 20.1253C70.091 19.7829 70.4753 19.3045 70.8763 18.6901C71.2772 18.0757 71.6406 17.3606 71.9664 16.5448C72.2922 15.729 72.5053 14.8678 72.6055 13.9613C72.5387 13.9613 72.4426 13.9613 72.3173 13.9613C72.192 13.9613 72.0458 14.0218 71.8787 14.1426C71.2438 14.6462 70.7008 15.2354 70.2497 15.9102C69.7986 16.5851 69.4478 17.2397 69.1971 17.8743C68.9465 18.5088 68.7961 19.0778 68.746 19.5814C68.6959 20.085 68.7544 20.4174 68.9215 20.5785ZM75.8635 12.2391C75.8468 12.0578 75.9262 12.0124 76.1016 12.1031C76.277 12.1937 76.4567 12.2894 76.6404 12.3901C76.7073 12.8534 76.7574 13.2211 76.7908 13.493C76.8242 13.7649 76.8493 14.0218 76.866 14.2635C76.8827 14.5052 76.8994 14.7671 76.9161 15.0491C76.9328 15.3311 76.9579 15.7038 76.9913 16.1671C77.1417 15.7038 77.3255 15.2757 77.5427 14.8829C77.7599 14.4901 78.0397 14.1527 78.3822 13.8707C78.7247 13.5887 79.1341 13.3822 79.6102 13.2513C80.0864 13.1203 80.6587 13.075 81.327 13.1153C81.327 13.2765 81.281 13.4124 81.1891 13.5232C81.0972 13.634 80.8842 13.7196 80.55 13.78C80.0655 13.8808 79.6437 14.0772 79.2844 14.3693C78.9252 14.6613 78.6161 14.9987 78.3572 15.3815C78.0982 15.7642 77.8894 16.1721 77.7306 16.6052C77.5719 17.0383 77.4424 17.4361 77.3422 17.7987C77.3255 17.98 77.3046 18.2368 77.2795 18.5692C77.2545 18.9016 77.2377 19.2541 77.2294 19.6268C77.221 19.9994 77.2127 20.362 77.2043 20.7145C77.196 21.067 77.2085 21.344 77.2419 21.5454C77.2586 21.6462 77.221 21.7217 77.1291 21.7721C77.0373 21.8224 76.9328 21.8577 76.8159 21.8778C76.6989 21.8979 76.5903 21.8879 76.4901 21.8476C76.3898 21.8073 76.3397 21.7368 76.3397 21.6361C76.3731 19.5613 76.3272 17.7735 76.2019 16.2728C76.0766 14.7721 75.9638 13.4275 75.8635 12.2391ZM88.9206 5.8938C88.8705 6.25639 88.812 6.63912 88.7452 7.04199C88.6784 7.44486 88.6074 7.82759 88.5322 8.19018C88.457 8.55277 88.3943 8.86499 88.3442 9.12686C88.2941 9.38873 88.2607 9.54988 88.244 9.61031C88.1437 9.95275 88.0101 10.3959 87.843 10.9398C87.6759 11.4837 87.4796 12.0527 87.254 12.647C87.0285 13.2412 86.7737 13.8354 86.4897 14.4297C86.2056 15.0239 85.9132 15.5325 85.6125 15.9556C85.6125 16.2577 85.6417 16.7663 85.7002 17.4814C85.7587 18.1965 85.8297 18.967 85.9132 19.7929C85.9968 20.6188 86.0761 21.4296 86.1513 22.2253C86.2265 23.021 86.2725 23.6404 86.2892 24.0835C86.2056 24.1843 86.1304 24.1641 86.0636 24.0231C85.9968 23.8821 85.8965 23.6404 85.7629 23.2979C85.6626 22.7742 85.5833 22.2908 85.5248 21.8476C85.4663 21.4044 85.412 20.9562 85.3619 20.503C85.3118 20.0498 85.2575 19.5714 85.199 19.0678C85.1405 18.5642 85.0528 17.9901 84.9358 17.3455C84.6184 17.8289 84.2383 18.3778 83.7955 18.9922C83.3528 19.6066 82.8933 20.1505 82.4172 20.6239C81.941 21.0972 81.4732 21.4296 81.0137 21.621C80.5542 21.8123 80.1574 21.7267 79.8233 21.3641C79.6228 21.0418 79.5351 20.6641 79.5601 20.2311C79.5852 19.798 79.6854 19.3548 79.8609 18.9016C80.0363 18.4483 80.2618 18.0001 80.5375 17.557C80.8132 17.1138 81.0931 16.7009 81.3771 16.3182C81.6611 15.9354 81.9284 15.6031 82.1791 15.321C82.4297 15.039 82.6135 14.8376 82.7304 14.7167C82.9643 14.5354 83.1606 14.3894 83.3194 14.2786C83.4781 14.1678 83.6201 14.0772 83.7454 14.0067C83.8707 13.9362 84.0002 13.8858 84.1339 13.8556C84.2675 13.8254 84.4346 13.8203 84.6351 13.8405C84.6017 13.3772 84.5808 12.8232 84.5725 12.1786C84.5641 11.534 84.5641 10.8844 84.5725 10.2297C84.5808 9.57506 84.5975 8.96571 84.6226 8.40169C84.6476 7.83767 84.6852 7.40458 84.7354 7.10242C84.7688 6.65926 84.8481 6.19596 84.9734 5.71251C85.0987 5.22906 85.2575 4.76072 85.4496 4.30749C85.6417 3.85425 85.8548 3.45138 86.0887 3.09887C86.3226 2.74635 86.5774 2.49456 86.8531 2.34348C87.1287 2.1924 87.4128 2.15715 87.7052 2.23772C87.9975 2.3183 88.2857 2.5701 88.5698 2.99311C88.8037 3.33556 88.9206 3.76361 88.9206 4.27727C88.9206 4.79094 88.9206 5.32978 88.9206 5.8938ZM85.6125 13.9613C85.9132 13.5585 86.1639 13.1304 86.3644 12.6772C86.5649 12.224 86.7904 11.6851 87.041 11.0607C87.2582 10.5168 87.4545 9.82182 87.63 8.97578C87.8054 8.12975 87.9265 7.29882 87.9934 6.483C88.0602 5.66718 88.0602 4.95712 87.9934 4.35281C87.9265 3.7485 87.7594 3.4262 87.4921 3.38591C87.2582 3.34563 87.041 3.45138 86.8405 3.70318C86.64 3.95497 86.4562 4.2672 86.2892 4.63986C86.1221 5.01251 85.9801 5.41035 85.8631 5.83337C85.7462 6.25639 85.6626 6.62905 85.6125 6.95134C85.5457 7.35422 85.4997 7.7168 85.4747 8.0391C85.4496 8.3614 85.4329 8.69881 85.4245 9.05132C85.4162 9.40384 85.4037 9.78657 85.3869 10.1995C85.3702 10.6125 85.3368 11.1211 85.2867 11.7254C85.2867 12.0275 85.2992 12.3297 85.3243 12.6319C85.3494 12.934 85.3828 13.1908 85.4245 13.4024C85.4663 13.6139 85.5039 13.775 85.5373 13.8858C85.5707 13.9966 85.5958 14.0218 85.6125 13.9613ZM81.9786 16.7714C81.5275 17.3354 81.1975 17.8541 80.9886 18.3275C80.7798 18.8009 80.6085 19.239 80.4749 19.6419C80.4749 19.7023 80.4749 19.798 80.4749 19.9289C80.4749 20.0598 80.4874 20.1857 80.5125 20.3066C80.5375 20.4275 80.5876 20.5332 80.6628 20.6239C80.738 20.7145 80.8592 20.7397 81.0262 20.6994C81.1933 20.6188 81.3311 20.5383 81.4397 20.4577C81.5483 20.3771 81.6486 20.2915 81.7405 20.2008C81.8324 20.1102 81.9326 20.0145 82.0412 19.9138C82.1498 19.8131 82.2877 19.6821 82.4547 19.521C82.6887 19.2188 82.9769 18.8764 83.3194 18.4937C83.6619 18.1109 83.9626 17.7081 84.2216 17.285C84.4806 16.862 84.6518 16.4289 84.7354 15.9858C84.8189 15.5426 84.7103 15.1095 84.4095 14.6865C84.2926 14.6865 84.1715 14.7067 84.0461 14.7469C83.9208 14.7872 83.7663 14.8829 83.5825 15.034C83.3987 15.1851 83.1774 15.3966 82.9184 15.6685C82.6594 15.9405 82.3461 16.3081 81.9786 16.7714ZM90.7 0.0319928C90.7167 0.0924238 90.7334 0.349256 90.7501 0.802489C90.7669 1.25572 90.7794 1.83485 90.7877 2.53988C90.7961 3.24491 90.8003 4.04562 90.8003 4.94201C90.8003 5.83841 90.8044 6.75998 90.8128 7.70673C90.8212 8.65348 90.8253 9.59017 90.8253 10.5168C90.8253 11.4434 90.8253 12.2945 90.8253 13.07C90.8253 13.8455 90.8253 14.5002 90.8253 15.034C90.8253 15.5678 90.8253 15.9254 90.8253 16.1066C91.0091 15.1196 91.2723 14.3038 91.6148 13.6592C91.9573 13.0146 92.2706 12.6721 92.5546 12.6319C92.8887 12.5513 93.1435 12.6369 93.319 12.8887C93.4944 13.1405 93.6364 13.4829 93.745 13.916C93.8536 14.3491 93.9622 14.8326 94.0708 15.3664C94.1794 15.9002 94.3256 16.4088 94.5094 16.8922C94.6932 17.3757 94.9438 17.8037 95.2612 18.1764C95.5787 18.5491 96.0131 18.7757 96.5644 18.8563C96.13 19.2994 95.7416 19.5009 95.3991 19.4606C95.0566 19.4203 94.7517 19.239 94.4843 18.9167C94.217 18.5944 93.9831 18.1814 93.7826 17.6779C93.5821 17.1743 93.415 16.6807 93.2814 16.1973C93.1477 15.7138 93.0391 15.2908 92.9556 14.9282C92.872 14.5657 92.8135 14.3541 92.7801 14.2937C92.6799 14.1326 92.5713 14.1225 92.4543 14.2635C92.3374 14.4045 92.2163 14.6261 92.0909 14.9282C91.9656 15.2304 91.8487 15.5779 91.7401 15.9707C91.6315 16.3635 91.5354 16.7361 91.4519 17.0886C91.3683 17.4412 91.3015 17.7383 91.2514 17.98C91.2012 18.2217 91.1762 18.3325 91.1762 18.3124C91.1261 18.5742 91.0843 18.9167 91.0509 19.3397C91.0175 19.7627 90.9966 20.1807 90.9882 20.5936C90.9799 21.0066 90.9799 21.3793 90.9882 21.7116C90.9966 22.044 91.0175 22.2505 91.0509 22.331C90.9339 22.331 90.7668 22.2857 90.5496 22.1951C90.3324 22.1044 90.1654 22.0591 90.0484 22.0591C90.0484 21.4548 90.0484 20.6642 90.0484 19.6872C90.0484 18.7102 90.0484 17.6225 90.0484 16.4239C90.0484 15.2254 90.0442 13.9412 90.0359 12.5714C90.0275 11.2017 90.0108 9.81678 89.9858 8.4168C89.9607 7.01681 89.9315 5.6269 89.8981 4.24706C89.8646 2.86722 89.8145 1.56291 89.7477 0.334148C89.7477 0.293861 89.8479 0.218322 90.0484 0.107532C90.2489 -0.00325833 90.4661 -0.0284382 90.7 0.0319928ZM101.727 12.9038C101.71 13.0247 101.673 13.2765 101.614 13.6592C101.556 14.0419 101.493 14.4901 101.426 15.0038C101.36 15.5174 101.301 16.0563 101.251 16.6203C101.201 17.1843 101.172 17.7181 101.163 18.2217C101.155 18.7253 101.18 19.1534 101.238 19.5059C101.297 19.8584 101.393 20.0749 101.527 20.1555C101.911 20.3771 102.304 20.3016 102.705 19.9289C103.106 19.5562 103.573 18.9872 104.108 18.2217C104.158 18.2217 104.162 18.3023 104.121 18.4635C104.079 18.6246 104.012 18.8009 103.92 18.9922C103.828 19.1836 103.736 19.375 103.644 19.5663C103.552 19.7577 103.481 19.8836 103.431 19.944C103.298 20.1455 103.106 20.3721 102.855 20.6239C102.604 20.8757 102.337 21.0771 102.053 21.2282C101.769 21.3792 101.497 21.4447 101.238 21.4246C100.979 21.4044 100.766 21.2231 100.599 20.8807C100.516 20.639 100.466 20.3418 100.449 19.9893C100.432 19.6368 100.432 19.2793 100.449 18.9167C100.466 18.5541 100.491 18.2217 100.524 17.9196C100.558 17.6174 100.583 17.3958 100.599 17.2548C100.249 18.0404 99.8475 18.7858 99.3964 19.4908C98.9453 20.1958 98.5025 20.7498 98.0681 21.1526C97.6337 21.5555 97.2328 21.7721 96.8652 21.8023C96.4976 21.8325 96.2136 21.5756 96.0131 21.0318C95.8961 20.508 95.8961 19.9188 96.0131 19.2642C96.13 18.6095 96.3055 18.0203 96.5394 17.4966C96.8902 16.7714 97.2578 16.1066 97.6421 15.5023C98.0264 14.898 98.4357 14.3844 98.8701 13.9613C99.3045 13.5383 99.7598 13.2311 100.236 13.0398C100.712 12.8484 101.209 12.8031 101.727 12.9038ZM97.0156 20.5785C97.1826 20.6188 97.45 20.4677 97.8175 20.1253C98.1851 19.7829 98.5694 19.3045 98.9704 18.6901C99.3713 18.0757 99.7347 17.3606 100.061 16.5448C100.386 15.729 100.599 14.8678 100.7 13.9613C100.633 13.9613 100.537 13.9613 100.411 13.9613C100.286 13.9613 100.14 14.0218 99.9728 14.1426C99.3379 14.6462 98.7949 15.2354 98.3438 15.9102C97.8927 16.5851 97.5418 17.2397 97.2912 17.8743C97.0406 18.5088 96.8902 19.0778 96.8401 19.5814C96.79 20.085 96.8485 20.4174 97.0156 20.5785ZM104.86 12.5714C104.86 13.1355 104.856 13.6995 104.847 14.2635C104.839 14.8275 104.831 15.3714 104.822 15.8951C104.814 16.4189 104.806 16.9124 104.797 17.3757C104.789 17.839 104.776 18.2519 104.76 18.6145C104.76 18.534 104.797 18.3376 104.872 18.0253C104.948 17.7131 105.052 17.3555 105.186 16.9527C105.319 16.5498 105.466 16.1218 105.624 15.6685C105.783 15.2153 105.954 14.8124 106.138 14.4599C106.322 14.1074 106.51 13.8304 106.702 13.629C106.894 13.4275 107.074 13.3671 107.241 13.4477C107.608 13.6491 107.867 13.9412 108.018 14.3239C108.168 14.7067 108.277 15.1448 108.343 15.6383C108.41 16.1318 108.477 16.6807 108.544 17.285C108.611 17.8894 108.761 18.5239 108.995 19.1886C109.095 19.4908 109.241 19.7124 109.434 19.8534C109.626 19.9944 109.81 20.0951 109.985 20.1555C110.16 20.216 110.302 20.2512 110.411 20.2613C110.52 20.2713 110.557 20.3066 110.524 20.367C110.106 20.7498 109.747 20.8807 109.446 20.7598C109.145 20.639 108.891 20.3721 108.682 19.9591C108.473 19.5462 108.302 19.0527 108.168 18.4786C108.034 17.9045 107.913 17.3505 107.805 16.8167C107.696 16.2829 107.6 15.8297 107.516 15.457C107.433 15.0844 107.341 14.898 107.241 14.898C107.09 14.9182 106.927 15.0894 106.752 15.4117C106.577 15.734 106.397 16.1369 106.213 16.6203C106.029 17.1038 105.854 17.6325 105.687 18.2066C105.52 18.7807 105.365 19.3196 105.223 19.8232C105.081 20.3267 104.968 20.7598 104.885 21.1224C104.801 21.485 104.751 21.7066 104.735 21.7872C104.484 21.7872 104.329 21.7972 104.271 21.8174C104.212 21.8375 104.116 21.7368 103.983 21.5152C104.066 19.7426 104.095 18.0656 104.07 16.4843C104.045 14.9031 104.008 13.5283 103.958 12.3599C103.958 12.1786 103.995 12.088 104.07 12.088C104.146 12.088 104.229 12.1283 104.321 12.2088C104.413 12.2894 104.509 12.37 104.609 12.4506C104.709 12.5311 104.793 12.5714 104.86 12.5714ZM115.636 12.9038C115.62 13.0247 115.582 13.2765 115.524 13.6592C115.465 14.0419 115.402 14.4901 115.336 15.0038C115.269 15.5174 115.21 16.0563 115.16 16.6203C115.11 17.1843 115.081 17.7181 115.072 18.2217C115.064 18.7253 115.089 19.1534 115.148 19.5059C115.206 19.8584 115.302 20.0749 115.436 20.1555C115.82 20.3771 116.213 20.3016 116.614 19.9289C117.015 19.5562 117.483 18.9872 118.017 18.2217C118.067 18.2217 118.072 18.3023 118.03 18.4635C117.988 18.6246 117.921 18.8009 117.829 18.9922C117.737 19.1836 117.645 19.375 117.554 19.5663C117.462 19.7577 117.391 19.8836 117.341 19.944C117.207 20.1455 117.015 20.3721 116.764 20.6239C116.514 20.8757 116.246 21.0771 115.962 21.2282C115.678 21.3792 115.407 21.4447 115.148 21.4246C114.889 21.4044 114.676 21.2231 114.509 20.8807C114.425 20.639 114.375 20.3418 114.358 19.9893C114.342 19.6368 114.342 19.2793 114.358 18.9167C114.375 18.5541 114.4 18.2217 114.433 17.9196C114.467 17.6174 114.492 17.3958 114.509 17.2548C114.158 18.0404 113.757 18.7858 113.306 19.4908C112.855 20.1958 112.412 20.7498 111.977 21.1526C111.543 21.5555 111.142 21.7721 110.774 21.8023C110.407 21.8325 110.123 21.5756 109.922 21.0318C109.805 20.508 109.805 19.9188 109.922 19.2642C110.039 18.6095 110.215 18.0203 110.449 17.4966C110.799 16.7714 111.167 16.1066 111.551 15.5023C111.936 14.898 112.345 14.3844 112.779 13.9613C113.214 13.5383 113.669 13.2311 114.145 13.0398C114.621 12.8484 115.118 12.8031 115.636 12.9038ZM110.925 20.5785C111.092 20.6188 111.359 20.4677 111.727 20.1253C112.094 19.7829 112.479 19.3045 112.88 18.6901C113.281 18.0757 113.644 17.3606 113.97 16.5448C114.296 15.729 114.509 14.8678 114.609 13.9613C114.542 13.9613 114.446 13.9613 114.321 13.9613C114.195 13.9613 114.049 14.0218 113.882 14.1426C113.247 14.6462 112.704 15.2354 112.253 15.9102C111.802 16.5851 111.451 17.2397 111.2 17.8743C110.95 18.5088 110.799 19.0778 110.749 19.5814C110.699 20.085 110.758 20.4174 110.925 20.5785ZM118.769 12.5714C118.769 13.1355 118.765 13.6995 118.757 14.2635C118.748 14.8275 118.74 15.3714 118.731 15.8951C118.723 16.4189 118.715 16.9124 118.706 17.3757C118.698 17.839 118.686 18.2519 118.669 18.6145C118.669 18.534 118.706 18.3376 118.782 18.0253C118.857 17.7131 118.961 17.3555 119.095 16.9527C119.229 16.5498 119.375 16.1218 119.533 15.6685C119.692 15.2153 119.863 14.8124 120.047 14.4599C120.231 14.1074 120.419 13.8304 120.611 13.629C120.803 13.4275 120.983 13.3671 121.15 13.4477C121.517 13.6491 121.776 13.9412 121.927 14.3239C122.077 14.7067 122.186 15.1448 122.253 15.6383C122.319 16.1318 122.386 16.6807 122.453 17.285C122.52 17.8894 122.67 18.5239 122.904 19.1886C123.004 19.4908 123.151 19.7124 123.343 19.8534C123.535 19.9944 123.719 20.0951 123.894 20.1555C124.07 20.216 124.212 20.2512 124.32 20.2613C124.429 20.2713 124.466 20.3066 124.433 20.367C124.015 20.7498 123.656 20.8807 123.355 20.7598C123.055 20.639 122.8 20.3721 122.591 19.9591C122.382 19.5462 122.211 19.0527 122.077 18.4786C121.944 17.9045 121.822 17.3505 121.714 16.8167C121.605 16.2829 121.509 15.8297 121.426 15.457C121.342 15.0844 121.25 14.898 121.15 14.898C121 14.9182 120.837 15.0894 120.661 15.4117C120.486 15.734 120.306 16.1369 120.122 16.6203C119.939 17.1038 119.763 17.6325 119.596 18.2066C119.429 18.7807 119.274 19.3196 119.132 19.8232C118.99 20.3267 118.878 20.7598 118.794 21.1224C118.711 21.485 118.66 21.7066 118.644 21.7872C118.393 21.7872 118.239 21.7972 118.18 21.8174C118.122 21.8375 118.026 21.7368 117.892 21.5152C117.975 19.7426 118.005 18.0656 117.98 16.4843C117.955 14.9031 117.917 13.5283 117.867 12.3599C117.867 12.1786 117.904 12.088 117.98 12.088C118.055 12.088 118.138 12.1283 118.23 12.2088C118.322 12.2894 118.418 12.37 118.518 12.4506C118.619 12.5311 118.702 12.5714 118.769 12.5714ZM125.661 23.8116C125.444 23.9526 125.168 23.8519 124.834 23.5094C124.817 23.3281 124.847 22.885 124.922 22.18C124.997 21.4749 125.101 20.6037 125.235 19.5663C125.369 18.5289 125.527 17.3707 125.711 16.0915C125.895 14.8124 126.083 13.5131 126.275 12.1937C126.467 10.8743 126.655 9.57506 126.839 8.29593C127.023 7.01681 127.186 5.86359 127.328 4.83626C127.47 3.80893 127.582 2.95283 127.666 2.26794C127.749 1.58306 127.783 1.16004 127.766 0.998889C127.816 0.878027 127.9 0.772273 128.017 0.681627C128.134 0.59098 128.259 0.525513 128.393 0.485226C128.526 0.444938 128.664 0.424795 128.806 0.424795C128.948 0.424795 129.061 0.465082 129.145 0.545657C128.894 1.69385 128.639 3.04347 128.38 4.59453C128.121 6.1456 127.866 7.75206 127.616 9.41391C127.365 11.0758 127.127 12.7326 126.902 14.3844C126.676 16.0361 126.476 17.5318 126.3 18.8714C126.125 20.2109 125.978 21.3289 125.862 22.2253C125.745 23.1217 125.678 23.6504 125.661 23.8116ZM131.275 19.521C131.241 19.5613 131.2 19.5663 131.15 19.5361C131.099 19.5059 131.058 19.4606 131.024 19.4001C130.991 19.3397 130.957 19.2692 130.924 19.1886C130.891 19.1081 130.874 19.0476 130.874 19.0073C131.008 18.8663 131.258 18.5894 131.626 18.1764C131.993 17.7635 132.378 17.3253 132.779 16.862C133.18 16.3987 133.543 15.9707 133.869 15.5779C134.195 15.1851 134.382 14.9383 134.433 14.8376C134.666 14.9786 134.788 15.1549 134.796 15.3664C134.804 15.5779 134.7 15.7843 134.483 15.9858C134.032 16.5095 133.543 17.0534 133.017 17.6174C132.49 18.1814 131.91 18.816 131.275 19.521ZM134.758 15.2606C134.792 15.3009 134.788 15.3513 134.746 15.4117C134.704 15.4721 134.646 15.5325 134.57 15.593C134.495 15.6534 134.42 15.7088 134.345 15.7592C134.27 15.8095 134.207 15.8347 134.157 15.8347C133.89 15.3513 133.58 14.8678 133.23 14.3844C132.879 13.9009 132.545 13.4578 132.227 13.0549C131.86 12.5916 131.484 12.1484 131.099 11.7254C131.283 11.4031 131.479 11.2268 131.688 11.1966C131.897 11.1664 132.077 11.2822 132.227 11.5441C132.645 12.1081 133.033 12.6721 133.393 13.2362C133.752 13.8002 134.207 14.475 134.758 15.2606Z" fill="white"/>
</svg>
