<svg viewBox="0 0 124 123" fill="none" xmlns="http://www.w3.org/2000/svg">
<path fill-rule="evenodd" clip-rule="evenodd" d="M93.8545 0.305664C111.55 0.305664 123.028 11.7837 123.028 29.4792V93.565C123.028 111.26 111.55 122.738 93.8545 122.738H29.7687C12.0733 122.738 0.595215 111.26 0.595215 93.565V29.4792C0.595215 11.7837 12.0733 0.305664 29.7687 0.305664H93.8545Z" fill="url(#paint0_linear_2_2672)"/>
<path fill-rule="evenodd" clip-rule="evenodd" d="M37.6426 90.7988C24.9022 84.1939 16.4291 72.4667 16.4291 59.1003C16.4291 38.4621 36.6298 21.7314 61.5485 21.7314C86.4673 21.7314 106.668 38.4621 106.668 59.1003C106.668 79.7386 86.4673 96.4692 61.5485 96.4692C57.3571 96.4692 53.2991 95.9958 49.4483 95.1101C47.8078 96.2529 44.8956 98.1784 41.7786 99.7536C35.2189 103.069 28.0509 105.396 32.6257 100.714C37.0067 96.2315 37.8025 92.8877 37.6426 90.7988Z" fill="white"/>
<defs>
<linearGradient id="paint0_linear_2_2672" x1="0.595215" y1="0.305664" x2="0.595215" y2="122.738" gradientUnits="userSpaceOnUse">
<stop stop-color="#64FA7E"/>
<stop offset="1" stop-color="#0CBA29"/>
</linearGradient>
</defs>
</svg>
